<svg version="1.1" viewBox="0.0 0.0 24.0 24.0" fill="none" stroke="none" stroke-linecap="square" stroke-miterlimit="10" xmlns:xlink="http://www.w3.org/1999/xlink" xmlns="http://www.w3.org/2000/svg"><clipPath id="p.0"><path d="m0 0l24.0 0l0 24.0l-24.0 0l0 -24.0z" clip-rule="nonzero"/></clipPath><g clip-path="url(#p.0)"><path fill="#000000" fill-opacity="0.0" d="m0 0l24.0 0l0 24.0l-24.0 0z" fill-rule="evenodd"/><path fill="#000000" fill-opacity="0.0" d="m1.3648294 0.09186352l0 23.905512" fill-rule="evenodd"/><path stroke="#000000" stroke-width="1.0" stroke-linejoin="round" stroke-linecap="butt" d="m1.3648294 0.09186352l0 23.905512" fill-rule="evenodd"/><path fill="#000000" fill-opacity="0.0" d="m6.75853 0.09186352l0 23.905512" fill-rule="evenodd"/><path stroke="#000000" stroke-width="1.0" stroke-linejoin="round" stroke-linecap="butt" d="m6.75853 0.09186352l0 23.905512" fill-rule="evenodd"/><path fill="#000000" fill-opacity="0.0" d="m0 12.031496l8.409449 0" fill-rule="evenodd"/><path stroke="#000000" stroke-width="1.0" stroke-linejoin="round" stroke-linecap="butt" d="m0 12.031496l8.409449 0" fill-rule="evenodd"/><path fill="#000000" fill-opacity="0.0" d="m0 15.380577l8.409449 0" fill-rule="evenodd"/><path stroke="#000000" stroke-width="1.0" stroke-linejoin="round" stroke-linecap="butt" d="m0 15.380577l8.409449 0" fill-rule="evenodd"/><path fill="#000000" fill-opacity="0.0" d="m0 18.824146l8.409449 0" fill-rule="evenodd"/><path stroke="#000000" stroke-width="1.0" stroke-linejoin="round" stroke-linecap="butt" d="m0 18.824146l8.409449 0" fill-rule="evenodd"/><path fill="#000000" fill-opacity="0.0" d="m0 22.293962l8.409449 0" fill-rule="evenodd"/><path stroke="#000000" stroke-width="1.0" stroke-linejoin="round" stroke-linecap="butt" d="m0 22.293962l8.409449 0" fill-rule="evenodd"/><path fill="#000000" fill-opacity="0.0" d="m0 8.467192l8.409449 0" fill-rule="evenodd"/><path stroke="#000000" stroke-width="1.0" stroke-linejoin="round" stroke-linecap="butt" d="m0 8.467192l8.409449 0" fill-rule="evenodd"/><path fill="#000000" fill-opacity="0.0" d="m0 5.2388453l8.409449 0" fill-rule="evenodd"/><path stroke="#000000" stroke-width="1.0" stroke-linejoin="round" stroke-linecap="butt" d="m0 5.2388453l8.409449 0" fill-rule="evenodd"/><path fill="#000000" fill-opacity="0.0" d="m0 2.0104988l8.409449 0" fill-rule="evenodd"/><path stroke="#000000" stroke-width="1.0" stroke-linejoin="round" stroke-linecap="butt" d="m0 2.0104988l8.409449 0" fill-rule="evenodd"/><path fill="#38761d" d="m12.152231 16.548557l3.937008 0l0 6.8031483l-3.937008 0z" fill-rule="evenodd"/><path fill="#ffffff" d="m16.08924 16.548557l3.937008 0l0 6.8031483l-3.937008 0z" fill-rule="evenodd"/><path fill="#ff0000" d="m20.026247 16.417322l3.937008 0l0 6.80315l-3.937008 0z" fill-rule="evenodd"/><path fill="#ff0000" d="m12.152231 0.86614174l3.937008 0l0 6.8031497l-3.937008 0z" fill-rule="evenodd"/><path fill="#ffffff" d="m16.08924 0.86614174l3.937008 0l0 6.8031497l-3.937008 0z" fill-rule="evenodd"/><path fill="#ff0000" d="m20.026247 0.73490816l3.937008 0l0 6.8031497l-3.937008 0z" fill-rule="evenodd"/><path fill="#ff0000" d="m16.640419 2.703412l2.8346462 0l0 2.8661418l-2.8346462 0z" fill-rule="evenodd"/><path fill="#ffff00" d="m16.640419 19.994751l0 0c0 -0.79146385 0.6345577 -1.4330711 1.4173241 -1.4330711l0 0c0.37589645 0 0.7363987 0.15098381 1.0021992 0.41973686c0.26579857 0.26875305 0.415123 0.6332607 0.415123 1.0133343l0 0c0 0.79146194 -0.6345558 1.4330711 -1.4173222 1.4330711l0 0c-0.78276634 0 -1.4173241 -0.6416092 -1.4173241 -1.4330711z" fill-rule="evenodd"/><path fill="#ffffff" d="m12.152231 12.653281l11.811024 0l0 1.322834l-11.811024 0z" fill-rule="evenodd"/><path fill="#ff0000" d="m12.152231 13.988714l11.811024 0l0 1.322834l-11.811024 0z" fill-rule="evenodd"/><path fill="#ff0000" d="m12.152231 11.317848l11.811024 0l0 1.322834l-11.811024 0z" fill-rule="evenodd"/><path fill="#ffffff" d="m12.152231 9.982414l11.811024 0l0 1.322835l-11.811024 0z" fill-rule="evenodd"/><path fill="#ff0000" d="m12.152231 8.646981l11.811024 0l0 1.322835l-11.811024 0z" fill-rule="evenodd"/><path fill="#0000ff" d="m12.152231 8.646981l4.503937 0l0 3.338583l-4.503937 0z" fill-rule="evenodd"/></g></svg>