<?xml version="1.0" encoding="UTF-8" standalone="no"?>
<!DOCTYPE svg PUBLIC "-//W3C//DTD SVG 1.1//EN" "http://www.w3.org/Graphics/SVG/1.1/DTD/svg11.dtd">
<svg version="1.1" xmlns="http://www.w3.org/2000/svg" xmlns:xlink="http://www.w3.org/1999/xlink" preserveAspectRatio="xMidYMid meet" viewBox="0 0 16 16" width="16" height="16"><defs><path d="M0 0L16 0L16 16L0 16L0 0Z" id="b1qCXvjzxa"></path><path d="M0.91 0.06L0.91 16" id="n63hBHoCQU"></path><path d="M1 0L1 16" id="brkpzKMbD"></path><path d="M4.51 0.06L4.51 16" id="hPbBtFWGi"></path><path d="M5 0.06L5 16.06" id="g1zf3DMMr"></path><path d="M0 8.02L5.61 8.02" id="k1CQUSTjmD"></path><path d="M0 8L6 8" id="k3hiUQqlCz"></path><path d="M0 10.25L5.61 10.25" id="acc8bzdM"></path><path d="M0 11L6 11" id="m2fJFUmV8x"></path><path d="M0 12.55L5.61 12.55" id="a16DaXAHjT"></path><path d="M0.09 14L6.09 14" id="a4W8Pw0t75"></path><path d="M0 14.86L5.61 14.86" id="g1rM5BSbz"></path><path d="M0 5.64L5.61 5.64" id="b2Qy51wDt1"></path><path d="M0 5L6 5" id="aTqI7e4MI"></path><path d="M0 3.49L5.61 3.49" id="a4tNp5LKpI"></path><path d="M0 2L6 2" id="a34qEwpzgP"></path><path d="M0 1.34L5.61 1.34" id="fBN1IwHfs"></path><path d="M7.1 12L10.1 12L10.1 16L7.1 16L7.1 12Z" id="b4T0cNNx5"></path><path d="M10.73 11.03L13.35 11.03L13.35 15.57L10.73 15.57L10.73 11.03Z" id="b3XNfuhi4H"></path><path d="M13 12L16 12L16 16L13 16L13 12Z" id="h8ZvMLCDh"></path><path d="M7 0L10 0L10 5L7 5L7 0Z" id="k3etioxgqW"></path><path d="M10.73 0.58L13.35 0.58L13.35 5.11L10.73 5.11L10.73 0.58Z" id="daQXOlrsE"></path><path d="M11 2L12 2L12 3L11 3L11 2Z" id="dyHq7jnnR"></path><path d="M10 14C10 13.45 10.68 13 11.5 13C11.5 13 11.5 13 11.5 13C11.9 13 12.28 13.11 12.56 13.3C12.85 13.48 13 13.74 13 14C13 14 13 14 13 14C13 14.56 12.33 15 11.5 15C11.5 15 11.5 15 11.5 15C10.68 15 10 14.56 10 14C10 14 10 14 10 14Z" id="b11MIpGaxk"></path><path d="M8.1 8.44L15.98 8.44L15.98 9.32L8.1 9.32L8.1 8.44Z" id="gT9thhfNC"></path><path d="M7 10L16 10L16 11L7 11L7 10Z" id="b1eNSLLLj8"></path><path d="M7 8L16 8L16 9L7 9L7 8Z" id="bfNH87prp"></path><path d="M8.1 6.65L15.98 6.65L15.98 7.54L8.1 7.54L8.1 6.65Z" id="affO6ZCY"></path><path d="M10 6L16 6L16 7L10 7L10 6Z" id="b6eTmFxfv"></path><path d="M7 6L10 6L10 8L7 8L7 6Z" id="a4ZuswA0j"></path><path d="M13 0L16 0L16 5L13 5L13 0Z" id="a1uEJgZgt"></path></defs><g><g><g><use xlink:href="#b1qCXvjzxa" opacity="1" fill="#000000" fill-opacity="0"></use><g><use xlink:href="#b1qCXvjzxa" opacity="1" fill-opacity="0" stroke="#000000" stroke-width="1" stroke-opacity="0"></use></g></g><g><use xlink:href="#n63hBHoCQU" opacity="1" fill="#000000" fill-opacity="0"></use><g><use xlink:href="#n63hBHoCQU" opacity="1" fill-opacity="0" stroke="#000000" stroke-width="1" stroke-opacity="0"></use></g></g><g><use xlink:href="#brkpzKMbD" opacity="1" fill="#000000" fill-opacity="0"></use><g><use xlink:href="#brkpzKMbD" opacity="1" fill-opacity="0" stroke="#000000" stroke-width="1" stroke-opacity="1"></use></g></g><g><use xlink:href="#hPbBtFWGi" opacity="1" fill="#000000" fill-opacity="0"></use><g><use xlink:href="#hPbBtFWGi" opacity="1" fill-opacity="0" stroke="#000000" stroke-width="1" stroke-opacity="0"></use></g></g><g><use xlink:href="#g1zf3DMMr" opacity="1" fill="#000000" fill-opacity="0"></use><g><use xlink:href="#g1zf3DMMr" opacity="1" fill-opacity="0" stroke="#000000" stroke-width="1" stroke-opacity="1"></use></g></g><g><use xlink:href="#k1CQUSTjmD" opacity="1" fill="#000000" fill-opacity="0"></use><g><use xlink:href="#k1CQUSTjmD" opacity="1" fill-opacity="0" stroke="#000000" stroke-width="1" stroke-opacity="0"></use></g></g><g><use xlink:href="#k3hiUQqlCz" opacity="1" fill="#000000" fill-opacity="0"></use><g><use xlink:href="#k3hiUQqlCz" opacity="1" fill-opacity="0" stroke="#000000" stroke-width="1" stroke-opacity="1"></use></g></g><g><use xlink:href="#acc8bzdM" opacity="1" fill="#000000" fill-opacity="0"></use><g><use xlink:href="#acc8bzdM" opacity="1" fill-opacity="0" stroke="#000000" stroke-width="1" stroke-opacity="0"></use></g></g><g><use xlink:href="#m2fJFUmV8x" opacity="1" fill="#000000" fill-opacity="0"></use><g><use xlink:href="#m2fJFUmV8x" opacity="1" fill-opacity="0" stroke="#000000" stroke-width="1" stroke-opacity="1"></use></g></g><g><use xlink:href="#a16DaXAHjT" opacity="1" fill="#000000" fill-opacity="0"></use><g><use xlink:href="#a16DaXAHjT" opacity="1" fill-opacity="0" stroke="#000000" stroke-width="1" stroke-opacity="0"></use></g></g><g><use xlink:href="#a4W8Pw0t75" opacity="1" fill="#000000" fill-opacity="0"></use><g><use xlink:href="#a4W8Pw0t75" opacity="1" fill-opacity="0" stroke="#000000" stroke-width="1" stroke-opacity="1"></use></g></g><g><use xlink:href="#g1rM5BSbz" opacity="1" fill="#000000" fill-opacity="0"></use><g><use xlink:href="#g1rM5BSbz" opacity="1" fill-opacity="0" stroke="#000000" stroke-width="1" stroke-opacity="0"></use></g></g><g><use xlink:href="#b2Qy51wDt1" opacity="1" fill="#000000" fill-opacity="0"></use><g><use xlink:href="#b2Qy51wDt1" opacity="1" fill-opacity="0" stroke="#000000" stroke-width="1" stroke-opacity="0"></use></g></g><g><use xlink:href="#aTqI7e4MI" opacity="1" fill="#000000" fill-opacity="0"></use><g><use xlink:href="#aTqI7e4MI" opacity="1" fill-opacity="0" stroke="#000000" stroke-width="1" stroke-opacity="1"></use></g></g><g><use xlink:href="#a4tNp5LKpI" opacity="1" fill="#000000" fill-opacity="0"></use><g><use xlink:href="#a4tNp5LKpI" opacity="1" fill-opacity="0" stroke="#000000" stroke-width="1" stroke-opacity="0"></use></g></g><g><use xlink:href="#a34qEwpzgP" opacity="1" fill="#000000" fill-opacity="0"></use><g><use xlink:href="#a34qEwpzgP" opacity="1" fill-opacity="0" stroke="#000000" stroke-width="1" stroke-opacity="1"></use></g></g><g><use xlink:href="#fBN1IwHfs" opacity="1" fill="#000000" fill-opacity="0"></use><g><use xlink:href="#fBN1IwHfs" opacity="1" fill-opacity="0" stroke="#000000" stroke-width="1" stroke-opacity="0"></use></g></g><g><use xlink:href="#b4T0cNNx5" opacity="1" fill="#38761d" fill-opacity="1"></use><g><use xlink:href="#b4T0cNNx5" opacity="1" fill-opacity="0" stroke="#000000" stroke-width="1" stroke-opacity="0"></use></g></g><g><use xlink:href="#b3XNfuhi4H" opacity="1" fill="#ffffff" fill-opacity="1"></use><g><use xlink:href="#b3XNfuhi4H" opacity="1" fill-opacity="0" stroke="#000000" stroke-width="1" stroke-opacity="0"></use></g></g><g><use xlink:href="#h8ZvMLCDh" opacity="1" fill="#ff0000" fill-opacity="1"></use><g><use xlink:href="#h8ZvMLCDh" opacity="1" fill-opacity="0" stroke="#000000" stroke-width="1" stroke-opacity="0"></use></g></g><g><use xlink:href="#k3etioxgqW" opacity="1" fill="#ff0000" fill-opacity="1"></use><g><use xlink:href="#k3etioxgqW" opacity="1" fill-opacity="0" stroke="#000000" stroke-width="1" stroke-opacity="0"></use></g></g><g><use xlink:href="#daQXOlrsE" opacity="1" fill="#ffffff" fill-opacity="1"></use><g><use xlink:href="#daQXOlrsE" opacity="1" fill-opacity="0" stroke="#000000" stroke-width="1" stroke-opacity="0"></use></g></g><g><use xlink:href="#dyHq7jnnR" opacity="1" fill="#ff0000" fill-opacity="1"></use><g><use xlink:href="#dyHq7jnnR" opacity="1" fill-opacity="0" stroke="#000000" stroke-width="1" stroke-opacity="0"></use></g></g><g><use xlink:href="#b11MIpGaxk" opacity="1" fill="#ffff00" fill-opacity="1"></use><g><use xlink:href="#b11MIpGaxk" opacity="1" fill-opacity="0" stroke="#000000" stroke-width="1" stroke-opacity="0"></use></g></g><g><use xlink:href="#gT9thhfNC" opacity="1" fill="#ffffff" fill-opacity="1"></use><g><use xlink:href="#gT9thhfNC" opacity="1" fill-opacity="0" stroke="#000000" stroke-width="1" stroke-opacity="0"></use></g></g><g><use xlink:href="#b1eNSLLLj8" opacity="1" fill="#ff0000" fill-opacity="1"></use><g><use xlink:href="#b1eNSLLLj8" opacity="1" fill-opacity="0" stroke="#000000" stroke-width="1" stroke-opacity="0"></use></g></g><g><use xlink:href="#bfNH87prp" opacity="1" fill="#ff0000" fill-opacity="1"></use><g><use xlink:href="#bfNH87prp" opacity="1" fill-opacity="0" stroke="#000000" stroke-width="1" stroke-opacity="0"></use></g></g><g><use xlink:href="#affO6ZCY" opacity="1" fill="#ffffff" fill-opacity="1"></use><g><use xlink:href="#affO6ZCY" opacity="1" fill-opacity="0" stroke="#000000" stroke-width="1" stroke-opacity="0"></use></g></g><g><use xlink:href="#b6eTmFxfv" opacity="1" fill="#ff0000" fill-opacity="1"></use><g><use xlink:href="#b6eTmFxfv" opacity="1" fill-opacity="0" stroke="#000000" stroke-width="1" stroke-opacity="0"></use></g></g><g><use xlink:href="#a4ZuswA0j" opacity="1" fill="#0000ff" fill-opacity="1"></use><g><use xlink:href="#a4ZuswA0j" opacity="1" fill-opacity="0" stroke="#000000" stroke-width="1" stroke-opacity="0"></use></g></g><g><use xlink:href="#a1uEJgZgt" opacity="1" fill="#ff0000" fill-opacity="1"></use><g><use xlink:href="#a1uEJgZgt" opacity="1" fill-opacity="0" stroke="#000000" stroke-width="1" stroke-opacity="0"></use></g></g></g></g></svg>